<svg xmlns="http://www.w3.org/2000/svg" viewBox="0 0 212.44 31.78">
  <g id="Layer_2" data-name="Layer 2">
    <g id="Layer_1-2" data-name="Layer 1">
      <g>
        <polygon points="61.22 26.77 50.34 0.87 45.07 0.87 45.07 31.34 47.34 31.34 47.34 2.87 59.26 31.34 61.62 31.34 73.45 3.05 73.45 31.34 77.07 31.34 77.07 0.87 72.11 0.87 61.22 26.77"/>
        <path d="M100.53,12.12a10.14,10.14,0,0,0-3.44-2.28,11.58,11.58,0,0,0-8.61,0A10.14,10.14,0,0,0,85,12.12a10.55,10.55,0,0,0-2.27,3.55A12.44,12.44,0,0,0,82,20.28,13,13,0,0,0,82.77,25a10.7,10.7,0,0,0,2.29,3.63A9.89,9.89,0,0,0,88.5,31a11.22,11.22,0,0,0,4.29.81A11.08,11.08,0,0,0,97.05,31a10,10,0,0,0,3.44-2.31A10.7,10.7,0,0,0,102.77,25a12.64,12.64,0,0,0,.85-4.75,12.44,12.44,0,0,0-.82-4.61A10.55,10.55,0,0,0,100.53,12.12ZM99.38,24.18a9.53,9.53,0,0,1-1.28,3.13,6.59,6.59,0,0,1-8.43,2.07,6.21,6.21,0,0,1-2.2-2.07,9.53,9.53,0,0,1-1.28-3.13,17.16,17.16,0,0,1-.41-3.9,16.34,16.34,0,0,1,.41-3.8,9.17,9.17,0,0,1,1.28-3.05,6.47,6.47,0,0,1,2.2-2,6.93,6.93,0,0,1,6.23,0,6.56,6.56,0,0,1,2.2,2,9.17,9.17,0,0,1,1.28,3.05,16.34,16.34,0,0,1,.41,3.8A17.16,17.16,0,0,1,99.38,24.18Z"/>
        <path d="M123.94,13.49a8.84,8.84,0,0,0-2.83-3.13,8,8,0,0,0-4.7-1.31,10.08,10.08,0,0,0-3.85.74A8.55,8.55,0,0,0,109.44,12a10.18,10.18,0,0,0-2,3.53,14.11,14.11,0,0,0-.74,4.78,14.84,14.84,0,0,0,.74,4.9,10.29,10.29,0,0,0,2,3.61A8.42,8.42,0,0,0,112.56,31a9.86,9.86,0,0,0,3.89.77,7.74,7.74,0,0,0,4.75-1.42A8.89,8.89,0,0,0,124,27v4.35h3.3V0h-3.39Zm-1.85,13.76a6,6,0,0,1-5,2.7,5.56,5.56,0,0,1-5-2.64,12.72,12.72,0,0,1-1.72-7,12.12,12.12,0,0,1,1.7-6.89,5.63,5.63,0,0,1,5-2.51A6.07,6.07,0,0,1,122,13.49a10.68,10.68,0,0,1,2,6.79A11.49,11.49,0,0,1,122.09,27.25Z"/>
        <path d="M148.86,11.71a9.44,9.44,0,0,0-3.22-2,11,11,0,0,0-3.83-.68,9.67,9.67,0,0,0-3.68.74A9.81,9.81,0,0,0,134.91,12a10.53,10.53,0,0,0-2.27,3.52,13,13,0,0,0-.84,4.81,13.57,13.57,0,0,0,.8,4.84,10.41,10.41,0,0,0,2.24,3.61,9.6,9.6,0,0,0,3.4,2.26,11.08,11.08,0,0,0,4.22.79,9.93,9.93,0,0,0,6.2-1.9,8.05,8.05,0,0,0,3.12-5.11h-2.05a6.28,6.28,0,0,1-2.33,3.76A7.13,7.13,0,0,1,142.81,30a6.06,6.06,0,0,1-5.36-2.72,12.34,12.34,0,0,1-1.82-7V20.2h16.23v-.7a12,12,0,0,0-.8-4.53A9.24,9.24,0,0,0,148.86,11.71Zm-13.19,6.75a9.66,9.66,0,0,1,1.85-5.84,5.38,5.38,0,0,1,4.29-1.91,5.29,5.29,0,0,1,4.5,2,9.83,9.83,0,0,1,1.59,5.77Z"/>
        <path d="M165.64,9.45a6.26,6.26,0,0,0-2.74.58,6.35,6.35,0,0,0-2.13,1.72,6.14,6.14,0,0,0-1.13,2.14V9.53h-3.31V31.34h3.39V18.72a9.87,9.87,0,0,1,.44-3.18,5.1,5.1,0,0,1,1.15-2,4,4,0,0,1,1.59-1,5.72,5.72,0,0,1,1.79-.28,10.52,10.52,0,0,1,1.15.06l1,.11V9.53a4.75,4.75,0,0,0-.57-.06C166.05,9.45,165.85,9.45,165.64,9.45Z"/>
        <path d="M186,11a8.29,8.29,0,0,0-5.55-1.94,7.24,7.24,0,0,0-4.48,1.42,8,8,0,0,0-2.7,3.55V9.53h-3.31V31.34h3.4V21.2q0-5.06,1.89-7.68a5.53,5.53,0,0,1,4.59-2.64,4.75,4.75,0,0,1,3.64,1.53q1.41,1.52,1.41,5.18V31.34h3.4V17.85Q188.26,12.93,186,11Z"/>
        <path d="M212.44,20.2v-.7a11.81,11.81,0,0,0-.81-4.53,9.24,9.24,0,0,0-2.2-3.26,9.44,9.44,0,0,0-3.22-2,11,11,0,0,0-3.83-.68,9.71,9.71,0,0,0-3.68.74A9.92,9.92,0,0,0,195.48,12a10.36,10.36,0,0,0-2.26,3.52,12.77,12.77,0,0,0-.85,4.81,13.8,13.8,0,0,0,.8,4.84,10.43,10.43,0,0,0,2.25,3.61A9.56,9.56,0,0,0,198.81,31a11.12,11.12,0,0,0,4.22.79,10,10,0,0,0,6.21-1.9,8,8,0,0,0,3.11-5.11h-2A6.23,6.23,0,0,1,208,28.53,7.13,7.13,0,0,1,203.38,30,6,6,0,0,1,198,27.27a12.27,12.27,0,0,1-1.83-7V20.2Zm-14.35-7.58a5.38,5.38,0,0,1,4.29-1.91,5.31,5.31,0,0,1,4.51,2,9.83,9.83,0,0,1,1.59,5.77H196.24A9.79,9.79,0,0,1,198.09,12.62Z"/>
        <path d="M30.27.66a.78.78,0,0,0-.85.16L16,14.2A15.38,15.38,0,0,0,.78.6.78.78,0,0,0,.23.82.78.78,0,0,0,0,1.37V16H0v14.6a0,0,0,0,0,0,0,.37.37,0,0,0,0,.11l0,.12a0,0,0,0,0,0,0s0,0,0,.07a.53.53,0,0,0,.06.1l.07.08.09.08.1.06s0,0,.06,0h0a.76.76,0,0,0,.27.05H30a.77.77,0,0,0,.78-.77V1.37A.77.77,0,0,0,30.27.66ZM29.19,3.25V15.19H17.25Zm0,19.24h-13V16.75h13ZM1.55,28.69V16.75h12l-6,6Zm0-26.52a13.83,13.83,0,0,1,13,13h-13ZM8.62,23.82l6-6V29.79H2.65Zm7.53,6V24.05h13v5.74Z"/>
      </g>
    </g>
  </g>
</svg>
